<svg width="32" height="32" viewBox="0 0 32 32" fill="none" xmlns="http://www.w3.org/2000/svg">
<path fill-rule="evenodd" clip-rule="evenodd" d="M10.9574 22.8148L8.45104 24.042C8.35511 24.0898 8.24137 24.085 8.1498 24.0293C8.05823 23.9736 8.00164 23.8748 7.99994 23.7677V6.43347C8.00208 6.32654 8.05884 6.22816 8.15034 6.17279C8.24183 6.11741 8.35532 6.11276 8.45104 6.16047L10.9574 7.38767C11.0576 7.43642 11.1761 7.42902 11.2694 7.36817L13.287 6.05126C13.3922 5.98291 13.5277 5.98291 13.6328 6.05126L15.627 7.35126C15.7322 7.41962 15.8677 7.41962 15.9728 7.35126L17.967 6.05126C18.0722 5.98291 18.2077 5.98291 18.3128 6.05126L20.3291 7.36817C20.4225 7.42902 20.5409 7.43642 20.6411 7.38767L23.1488 6.16047C23.2446 6.11276 23.358 6.11741 23.4495 6.17279C23.541 6.22816 23.5978 6.32654 23.5999 6.43347V23.7677C23.5978 23.8746 23.541 23.973 23.4495 24.0283C23.358 24.0837 23.2446 24.0884 23.1488 24.0407L20.6424 22.8135C20.5422 22.7647 20.4238 22.7721 20.3304 22.833L18.3128 24.1499C18.2077 24.2182 18.0722 24.2182 17.967 24.1499L15.9728 22.8499C15.8677 22.7815 15.7322 22.7815 15.627 22.8499L13.6328 24.1499C13.5277 24.2182 13.3922 24.2182 13.287 24.1499L11.2707 22.833C11.1768 22.772 11.0578 22.7651 10.9574 22.8148Z" stroke="#13206C" stroke-width="2" stroke-linecap="round" stroke-linejoin="round"/>
<path d="M11.9 12.8008C11.3477 12.8008 10.9 13.2485 10.9 13.8008C10.9 14.3531 11.3477 14.8008 11.9 14.8008V12.8008ZM19.7 14.8008C20.2522 14.8008 20.7 14.3531 20.7 13.8008C20.7 13.2485 20.2522 12.8008 19.7 12.8008V14.8008ZM13.2 15.4008C12.6477 15.4008 12.2 15.8485 12.2 16.4008C12.2 16.9531 12.6477 17.4008 13.2 17.4008V15.4008ZM18.4 17.4008C18.9522 17.4008 19.4 16.9531 19.4 16.4008C19.4 15.8485 18.9522 15.4008 18.4 15.4008V17.4008ZM11.9 14.8008H19.7V12.8008H11.9V14.8008ZM13.2 17.4008H18.4V15.4008H13.2V17.4008Z" fill="#13206C"/>
</svg>
