<svg width="32" height="32" viewBox="0 0 32 32" fill="none" xmlns="http://www.w3.org/2000/svg">
<path fill-rule="evenodd" clip-rule="evenodd" d="M9.1 6.5H14.3C16.7513 6.5 17.9769 6.5 18.7385 7.26153C19.5 8.02304 19.5 9.24869 19.5 11.7V27.625H21.45H27.3H28.6C29.1385 27.625 29.575 28.0615 29.575 28.6C29.575 29.1385 29.1385 29.575 28.6 29.575H2.6C2.06153 29.575 1.625 29.1385 1.625 28.6C1.625 28.0615 2.06153 27.625 2.6 27.625H3.9V11.7C3.9 9.24869 3.9 8.02304 4.66153 7.26153C5.42304 6.5 6.64869 6.5 9.1 6.5ZM6.825 10.4C6.825 9.86153 7.26153 9.425 7.8 9.425H15.6C16.1385 9.425 16.575 9.86153 16.575 10.4C16.575 10.9385 16.1385 11.375 15.6 11.375H7.8C7.26153 11.375 6.825 10.9385 6.825 10.4ZM6.825 14.3C6.825 13.7615 7.26153 13.325 7.8 13.325H15.6C16.1385 13.325 16.575 13.7615 16.575 14.3C16.575 14.8385 16.1385 15.275 15.6 15.275H7.8C7.26153 15.275 6.825 14.8385 6.825 14.3ZM6.825 18.2C6.825 17.6615 7.26153 17.225 7.8 17.225H15.6C16.1385 17.225 16.575 17.6615 16.575 18.2C16.575 18.7385 16.1385 19.175 15.6 19.175H7.8C7.26153 19.175 6.825 18.7385 6.825 18.2ZM11.7 23.725C12.2385 23.725 12.675 24.1615 12.675 24.7V27.625H10.725V24.7C10.725 24.1615 11.1615 23.725 11.7 23.725Z" fill="#13206C"/>
<path opacity="0.5" d="M19.5 2.6001H22.1C24.5513 2.6001 25.7769 2.6001 26.5385 3.36162C27.3 4.12314 27.3 5.34879 27.3 7.8001V27.6251H19.5V11.7001C19.5 9.24879 19.5 8.02314 18.7385 7.26163C17.9941 6.51725 16.8063 6.50049 14.4638 6.50011V4.55008C14.5734 4.04667 14.7563 3.66686 15.0615 3.36162C15.823 2.6001 17.0487 2.6001 19.5 2.6001Z" fill="#13206C"/>
</svg>
