<svg width="32" height="32" viewBox="0 0 32 32" fill="none" xmlns="http://www.w3.org/2000/svg">
<path d="M9.10139 15.662L10.1509 16.1791C10.2302 16.0182 10.2714 15.8413 10.2714 15.662H9.10139ZM7.34552 19.2257L6.296 18.7086C6.19928 18.9049 6.15956 19.1244 6.18132 19.3421L7.34552 19.2257ZM9.87619 22.4653L10.3651 21.4024C10.3343 21.3882 10.3029 21.3754 10.2709 21.3639L9.87619 22.4653ZM16.1266 23.852L16.1201 25.022L16.1331 25.022L16.1266 23.852ZM22.377 22.4653L21.9042 21.3951C21.8988 21.3975 21.8934 21.3999 21.8881 21.4024L22.377 22.4653ZM24.2369 21.0544L25.1401 21.798C25.1871 21.7409 25.2286 21.6795 25.264 21.6146L24.2369 21.0544ZM24.0289 17.4439L22.9627 17.9257C22.9932 17.9932 23.0301 18.0577 23.0728 18.1183L24.0289 17.4439ZM23.0253 13.6843L24.1897 13.5706C24.1885 13.5577 24.187 13.5448 24.1853 13.5319L23.0253 13.6843ZM16.1266 28.1332L16.1108 29.303C16.1213 29.3032 16.1318 29.3032 16.1423 29.303L16.1266 28.1332ZM16.1249 5.55145C13.3268 5.55145 11.2122 6.73031 9.83918 8.66374C8.50313 10.5452 7.93139 13.0464 7.93139 15.662H10.2714C10.2714 13.3428 10.7847 11.3738 11.7471 10.0186C12.6725 8.71546 14.0696 7.89145 16.1249 7.89145V5.55145ZM8.05186 15.1449L6.296 18.7086L8.39504 19.7428L10.1509 16.1791L8.05186 15.1449ZM6.18132 19.3421C6.37397 21.2691 7.65835 22.9133 9.48145 23.5667L10.2709 21.3639C9.29797 21.0152 8.61253 20.1378 8.50972 19.1093L6.18132 19.3421ZM9.38727 23.5283C11.4996 24.4999 13.7951 25.0091 16.1201 25.022L16.1331 22.682C14.1412 22.671 12.1747 22.2347 10.3651 21.4024L9.38727 23.5283ZM16.1331 25.022C18.4581 25.0091 20.7536 24.4999 22.8659 23.5283L21.8881 21.4024C20.0785 22.2347 18.112 22.671 16.1201 22.682L16.1331 25.022ZM22.8497 23.5356C23.7383 23.143 24.5227 22.548 25.1401 21.798L23.3336 20.3108C22.9483 20.7788 22.4588 21.1501 21.9042 21.3951L22.8497 23.5356ZM25.264 21.6146C26.1019 20.0783 25.9936 18.1993 24.9849 16.7694L23.0728 18.1183C23.5674 18.8195 23.6205 19.7409 23.2097 20.4942L25.264 21.6146ZM25.095 16.962C24.61 15.8886 24.3041 14.743 24.1897 13.5706L21.8608 13.7979C22 15.2248 22.3723 16.6192 22.9627 17.9257L25.095 16.962ZM24.1853 13.5319C23.9029 11.382 23.1565 9.38999 21.8104 7.91873C20.4378 6.41846 18.523 5.55145 16.1249 5.55145V7.89145C17.9093 7.89145 19.1829 8.51337 20.084 9.49827C21.0116 10.5122 21.6242 12.0016 21.8652 13.8366L24.1853 13.5319ZM17.2948 6.7215V3.8667H14.9548V6.7215H17.2948ZM11.0597 27.6625C12.5392 28.7067 14.3001 29.2786 16.1108 29.303L16.1423 26.9633C14.804 26.9452 13.5025 26.5225 12.4089 25.7507L11.0597 27.6625ZM16.1423 29.303C17.953 29.2786 19.7139 28.7067 21.1935 27.6625L19.8442 25.7507C18.7506 26.5225 17.4491 26.9452 16.1108 26.9633L16.1423 29.303Z" fill="#13206C"/>
</svg>
