<svg width="32" height="32" viewBox="0 0 32 32" fill="none" xmlns="http://www.w3.org/2000/svg">
<path fill-rule="evenodd" clip-rule="evenodd" d="M19.1538 5H11.8462C8.61741 5 6 7.61741 6 10.8462V19.6154C6 22.8441 8.61741 25.4615 11.8462 25.4615H19.1538C22.3826 25.4615 25 22.8441 25 19.6154V10.8462C25 7.61741 22.3826 5 19.1538 5Z" stroke="#13206C" stroke-width="2.34" stroke-linecap="round" stroke-linejoin="round"/>
<path d="M19.8848 12.0162C20.531 12.0162 21.0548 11.4924 21.0548 10.8462C21.0548 10.2 20.531 9.67619 19.8848 9.67619V12.0162ZM11.1156 9.67619C10.4694 9.67619 9.9456 10.2 9.9456 10.8462C9.9456 11.4924 10.4694 12.0162 11.1156 12.0162V9.67619ZM19.8848 16.4011C20.531 16.4011 21.0548 15.8773 21.0548 15.2311C21.0548 14.585 20.531 14.0611 19.8848 14.0611V16.4011ZM11.1156 14.0611C10.4694 14.0611 9.9456 14.585 9.9456 15.2311C9.9456 15.8773 10.4694 16.4011 11.1156 16.4011V14.0611ZM15.5002 20.7861C16.1464 20.7861 16.6702 20.2622 16.6702 19.6161C16.6702 18.9699 16.1464 18.4461 15.5002 18.4461V20.7861ZM11.1156 18.4461C10.4694 18.4461 9.9456 18.9699 9.9456 19.6161C9.9456 20.2622 10.4694 20.7861 11.1156 20.7861V18.4461ZM19.8848 9.67619H11.1156V12.0162H19.8848V9.67619ZM19.8848 14.0611H11.1156V16.4011H19.8848V14.0611ZM15.5002 18.4461H11.1156V20.7861H15.5002V18.4461Z" fill="#13206C"/>
</svg>
