<svg width="20" height="20" viewBox="0 0 20 20" fill="none" xmlns="http://www.w3.org/2000/svg">
<path d="M14.1667 2.02502H5.83333C3.33333 2.02502 1.66667 3.69169 1.66667 6.19169V11.1917C1.66667 13.6917 3.33333 15.3584 5.83333 15.3584H9.16667L12.875 17.825C13.425 18.1917 14.1667 17.8 14.1667 17.1334V15.3584C16.6667 15.3584 18.3333 13.6917 18.3333 11.1917V6.19169C18.3333 3.69169 16.6667 2.02502 14.1667 2.02502ZM12.9167 9.37502H7.08333C6.74167 9.37502 6.45833 9.09169 6.45833 8.75002C6.45833 8.40836 6.74167 8.12502 7.08333 8.12502H12.9167C13.2583 8.12502 13.5417 8.40836 13.5417 8.75002C13.5417 9.09169 13.2583 9.37502 12.9167 9.37502Z" fill="#1F41BB"/>
</svg>
