<svg width="37" height="36" viewBox="0 0 37 36" fill="none" xmlns="http://www.w3.org/2000/svg">
<path d="M25.8944 3.84692H11.1056C6.66901 3.84692 3.71127 6.80467 3.71127 11.2413V20.1145C3.71127 24.5511 6.66901 27.5089 11.1056 27.5089H17.0211L23.6021 31.8864C24.5782 32.5371 25.8944 31.842 25.8944 30.6589V27.5089C30.331 27.5089 33.2887 24.5511 33.2887 20.1145V11.2413C33.2887 6.80467 30.331 3.84692 25.8944 3.84692ZM23.6761 16.8906H13.3239C12.7176 16.8906 12.2148 16.3878 12.2148 15.7814C12.2148 15.1751 12.7176 14.6723 13.3239 14.6723H23.6761C24.2824 14.6723 24.7852 15.1751 24.7852 15.7814C24.7852 16.3878 24.2824 16.8906 23.6761 16.8906Z" fill="#1F41BB"/>
</svg>
