<svg width="62" height="62" viewBox="0 0 62 62" fill="none" xmlns="http://www.w3.org/2000/svg">
<path d="M30.9997 0C13.8794 0 0.000244141 13.8794 0.000244141 30.9997C0.000244141 48.1194 13.8792 62 30.9993 62C48.1194 62 61.9998 48.1194 61.9998 30.9997C61.9998 13.8794 48.1196 0 30.9997 0ZM42.6936 42.8149C41.4559 44.0516 39.4509 44.0516 38.2142 42.8149L31.1603 35.761L23.7853 43.1361C22.5482 44.3728 20.5429 44.3728 19.3064 43.1361C18.0687 41.8979 18.0687 39.8933 19.3064 38.6556L26.6809 31.2812L19.8146 24.4154C18.5779 23.1772 18.5779 21.1726 19.8146 19.9353C21.0517 18.6982 23.0574 18.6982 24.2947 19.9353L31.1605 26.8011L37.7058 20.2554C38.9429 19.0187 40.9492 19.0183 42.1852 20.2554C43.423 21.4935 43.423 23.4994 42.1852 24.7355L35.6406 31.2808L42.6941 38.3346C43.9307 39.5711 43.9314 41.5774 42.6936 42.8149Z" fill="#1F41BB"/>
</svg>
