<svg width="13" height="16" viewBox="0 0 13 16" fill="none" xmlns="http://www.w3.org/2000/svg">
<path fill-rule="evenodd" clip-rule="evenodd" d="M0.518199 0.519524C1.58182e-07 1.03904 0 1.8752 0 3.54751V11.5294C0 13.2017 1.58182e-07 14.0379 0.518199 14.5574C1.03639 15.0769 1.87041 15.0769 3.53846 15.0769H8.84615C10.5142 15.0769 11.3482 15.0769 11.8664 14.5574C12.3846 14.0379 12.3846 13.2017 12.3846 11.5294V3.54751C12.3846 1.8752 12.3846 1.03904 11.8664 0.519524C11.3482 1.58586e-07 10.5142 0 8.84615 0H3.53846C1.87041 0 1.03639 1.58586e-07 0.518199 0.519524ZM3.53846 3.54751C3.04991 3.54751 2.65385 3.94458 2.65385 4.43439C2.65385 4.92419 3.04991 5.32127 3.53846 5.32127H8.84615C9.33473 5.32127 9.73077 4.92419 9.73077 4.43439C9.73077 3.94458 9.33473 3.54751 8.84615 3.54751H3.53846ZM3.53846 7.09502C3.04991 7.09502 2.65385 7.49208 2.65385 7.9819C2.65385 8.47172 3.04991 8.86878 3.53846 8.86878H8.84615C9.33473 8.86878 9.73077 8.47172 9.73077 7.9819C9.73077 7.49208 9.33473 7.09502 8.84615 7.09502H3.53846ZM3.53846 10.6425C3.04991 10.6425 2.65385 11.0396 2.65385 11.5294C2.65385 12.0192 3.04991 12.4163 3.53846 12.4163H7.07692C7.5655 12.4163 7.96154 12.0192 7.96154 11.5294C7.96154 11.0396 7.5655 10.6425 7.07692 10.6425H3.53846Z" fill="#1F41BB"/>
</svg>
