<svg width="31" height="30" viewBox="0 0 31 30" fill="none" xmlns="http://www.w3.org/2000/svg">
<path d="M4.25 7.09426V3.75C4.25 3.05965 3.69035 2.5 3 2.5C2.30965 2.5 1.75 3.05965 1.75 3.75V8.75C1.75 10.1307 2.86929 11.25 4.25 11.25H9.25C9.94036 11.25 10.5 10.6904 10.5 10C10.5 9.30965 9.94036 8.75 9.25 8.75H6.15233C6.17773 8.71881 6.20196 8.68642 6.22494 8.65286C7.52625 6.75117 9.38761 5.28639 11.5649 4.47254C14.1343 3.5121 16.9663 3.5245 19.5271 4.50737C22.088 5.49025 24.201 7.37576 25.4681 9.80862C26.7351 12.2415 27.0686 15.0537 26.4059 17.7155C25.7431 20.3772 24.1299 22.7047 21.8699 24.2594C19.61 25.8141 16.8595 26.4886 14.1368 26.1559C11.414 25.8232 8.90689 24.5062 7.08785 22.4531C5.54641 20.7132 4.58924 18.5467 4.33159 16.2569C4.2544 15.5707 3.69593 15.0099 3.00558 15.0105C2.31521 15.011 1.74459 15.5724 1.80783 16.2597C2.07493 19.1636 3.26025 21.9195 5.20833 24.1182C7.43379 26.6301 10.5011 28.2414 13.8321 28.6485C17.1633 29.0555 20.5283 28.2302 23.2931 26.3282C26.058 24.4262 28.0318 21.5787 28.8426 18.3222C29.6535 15.0657 29.2454 11.6252 27.6953 8.64871C26.1451 5.67227 23.56 3.36549 20.4269 2.16301C17.2939 0.960523 13.8291 0.945363 10.6857 2.12039C8.07578 3.09595 5.83691 4.83601 4.25 7.09426Z" fill="#1F41BB"/>
<path d="M15.5 6.25C14.8096 6.25 14.25 6.80964 14.25 7.5V15.5834C14.25 15.5834 14.25 15.9093 14.4084 16.1544C14.5144 16.3623 14.6796 16.543 14.8967 16.6683L20.6715 20.0024C21.2694 20.3475 22.0339 20.1426 22.379 19.5448C22.7241 18.9469 22.5194 18.1825 21.9215 17.8373L16.75 14.8515V7.5C16.75 6.80965 16.1904 6.25 15.5 6.25Z" fill="#1F41BB"/>
</svg>
