<svg width="23" height="29" viewBox="0 0 23 29" fill="none" xmlns="http://www.w3.org/2000/svg">
<path fill-rule="evenodd" clip-rule="evenodd" d="M0.96237 1.46483C2.93766e-07 2.42965 0 3.98251 0 7.08824V21.9118C0 25.0175 2.93766e-07 26.5703 0.96237 27.5352C1.92472 28.5 3.47362 28.5 6.57143 28.5H16.4286C19.5263 28.5 21.0752 28.5 22.0376 27.5352C23 26.5703 23 25.0175 23 21.9118V7.08824C23 3.98251 23 2.42965 22.0376 1.46483C21.0752 0.5 19.5263 0.5 16.4286 0.5H6.57143C3.47362 0.5 1.92472 0.5 0.96237 1.46483ZM6.57143 7.08824C5.66411 7.08824 4.92857 7.82566 4.92857 8.73529C4.92857 9.64493 5.66411 10.3824 6.57143 10.3824H16.4286C17.3359 10.3824 18.0714 9.64493 18.0714 8.73529C18.0714 7.82566 17.3359 7.08824 16.4286 7.08824H6.57143ZM6.57143 13.6765C5.66411 13.6765 4.92857 14.4139 4.92857 15.3235C4.92857 16.2332 5.66411 16.9706 6.57143 16.9706H16.4286C17.3359 16.9706 18.0714 16.2332 18.0714 15.3235C18.0714 14.4139 17.3359 13.6765 16.4286 13.6765H6.57143ZM6.57143 20.2647C5.66411 20.2647 4.92857 21.0021 4.92857 21.9118C4.92857 22.8214 5.66411 23.5588 6.57143 23.5588H13.1429C14.0502 23.5588 14.7857 22.8214 14.7857 21.9118C14.7857 21.0021 14.0502 20.2647 13.1429 20.2647H6.57143Z" fill="#1F41BB"/>
</svg>
