<svg width="19" height="19" viewBox="0 0 19 19" fill="none" xmlns="http://www.w3.org/2000/svg">
<path d="M16.2861 6.7183C15.4568 3.06934 12.2738 1.42651 9.47784 1.42651C9.47784 1.42651 9.47784 1.42651 9.46994 1.42651C6.68188 1.42651 3.49101 3.06144 2.6617 6.71041C1.73761 10.7859 4.23344 14.2374 6.49233 16.4094C7.32953 17.215 8.40369 17.6178 9.47784 17.6178C10.552 17.6178 11.6262 17.215 12.4555 16.4094C14.7143 14.2374 17.2102 10.7938 16.2861 6.7183ZM9.47784 10.6753C8.10356 10.6753 6.98991 9.56165 6.98991 8.18737C6.98991 6.81308 8.10356 5.69944 9.47784 5.69944C10.8521 5.69944 11.9658 6.81308 11.9658 8.18737C11.9658 9.56165 10.8521 10.6753 9.47784 10.6753Z" fill="#8B939F"/>
</svg>
