<svg width="19" height="19" viewBox="0 0 19 19" fill="none" xmlns="http://www.w3.org/2000/svg">
<path d="M10.8442 2.77229L12.2343 5.55245C12.4239 5.93946 12.9293 6.31068 13.3558 6.38176L15.8754 6.80036C17.4866 7.0689 17.8657 8.23784 16.7047 9.39097L14.7459 11.3497C14.4142 11.6814 14.2325 12.3212 14.3352 12.7793L14.896 15.204C15.3383 17.1233 14.3194 17.8657 12.6213 16.8627L10.2597 15.4647C9.83324 15.2119 9.13031 15.2119 8.69591 15.4647L6.33434 16.8627C4.64413 17.8657 3.61737 17.1154 4.05966 15.204L4.62044 12.7793C4.72311 12.3212 4.54145 11.6814 4.20973 11.3497L2.25098 9.39097C1.09784 8.23784 1.46906 7.0689 3.08029 6.80036L5.59981 6.38176C6.01842 6.31068 6.5239 5.93946 6.71346 5.55245L8.10354 2.77229C8.86177 1.26373 10.0939 1.26373 10.8442 2.77229Z" fill="#FEC62E"/>
</svg>
