<svg width="62" height="62" viewBox="0 0 62 62" fill="none" xmlns="http://www.w3.org/2000/svg">
<g clip-path="url(#clip0_200_6445)">
<path fill-rule="evenodd" clip-rule="evenodd" d="M31 62C39.2217 62 47.1067 58.7339 52.9203 52.9203C58.7339 47.1067 62 39.2217 62 31C62 22.7783 58.7339 14.8933 52.9203 9.07969C47.1067 3.26606 39.2217 0 31 0C22.7783 0 14.8933 3.26606 9.07969 9.07969C3.26606 14.8933 0 22.7783 0 31C0 39.2217 3.26606 47.1067 9.07969 52.9203C14.8933 58.7339 22.7783 62 31 62ZM44.3093 25.73C44.9381 24.9375 45.2321 23.9306 45.1284 22.9243C45.0247 21.918 44.5316 20.9922 43.7545 20.3446C42.9774 19.697 41.9778 19.3789 40.9693 19.4584C39.9608 19.5379 39.0234 20.0086 38.3573 20.77L28.1583 33.0098L23.405 28.2565C22.6738 27.551 21.6948 27.1609 20.6788 27.1702C19.6628 27.1795 18.6911 27.5874 17.973 28.3062C17.2548 29.025 16.8478 29.9971 16.8394 31.0132C16.8311 32.0292 17.2221 33.0078 17.9283 33.7383L25.6783 41.4883C26.059 41.8687 26.5147 42.1656 27.0164 42.3602C27.5181 42.5548 28.0549 42.6427 28.5924 42.6184C29.13 42.5941 29.6566 42.4581 30.1387 42.219C30.6209 41.98 31.0479 41.6432 31.3927 41.23L44.3093 25.73Z" fill="#1F41BB"/>
</g>
<defs>
<clipPath id="clip0_200_6445">
<rect width="62" height="62" fill="white"/>
</clipPath>
</defs>
</svg>
