<svg width="35" height="34" viewBox="0 0 35 34" fill="none" xmlns="http://www.w3.org/2000/svg">
<path fill-rule="evenodd" clip-rule="evenodd" d="M17.5 31.0845C10.8605 31.0845 7.54073 31.0845 5.47812 29.0219C3.41548 26.9593 3.41548 23.6395 3.41548 17C3.41548 10.3605 3.41548 7.04078 5.47812 4.97816C7.54073 2.91553 10.8605 2.91553 17.5 2.91553C24.1394 2.91553 27.4593 2.91553 29.5218 4.97816C31.5845 7.04078 31.5845 10.3605 31.5845 17C31.5845 23.6395 31.5845 26.9593 29.5218 29.0219C27.4593 31.0845 24.1394 31.0845 17.5 31.0845ZM12.9225 9.25353C12.9225 8.67012 12.4496 8.19719 11.8662 8.19719C11.2828 8.19719 10.8098 8.67012 10.8098 9.25353V11.0141H9.04928C8.46589 11.0141 7.99295 11.487 7.99295 12.0704C7.99295 12.6539 8.46589 13.1268 9.04928 13.1268H10.8098V14.8874C10.8098 15.4707 11.2828 15.9437 11.8662 15.9437C12.4496 15.9437 12.9225 15.4707 12.9225 14.8874V13.1268H14.6831C15.2665 13.1268 15.7394 12.6539 15.7394 12.0704C15.7394 11.487 15.2665 11.0141 14.6831 11.0141H12.9225V9.25353ZM20.3169 11.0141C19.7335 11.0141 19.2606 11.487 19.2606 12.0704C19.2606 12.6538 19.7335 13.1268 20.3169 13.1268H25.9507C26.5341 13.1268 27.007 12.6538 27.007 12.0704C27.007 11.487 26.5341 11.0141 25.9507 11.0141H20.3169ZM20.3169 19.4648C19.7335 19.4648 19.2606 19.9378 19.2606 20.5212C19.2606 21.1045 19.7335 21.5775 20.3169 21.5775H25.9507C26.5341 21.5775 27.007 21.1045 27.007 20.5212C27.007 19.9378 26.5341 19.4648 25.9507 19.4648H20.3169ZM10.5005 19.7743C10.0879 19.3617 9.41909 19.3617 9.00657 19.7743C8.59404 20.1868 8.59404 20.8555 9.00657 21.2681L10.3723 22.6338L9.00658 23.9996C8.59406 24.4121 8.59406 25.0809 9.00658 25.4934C9.41911 25.9059 10.0879 25.9059 10.5005 25.4934L11.8662 24.1278L13.2319 25.4934C13.6444 25.9059 14.3133 25.9059 14.7258 25.4934C15.1383 25.0809 15.1383 24.4121 14.7258 23.9996L13.3601 22.6338L14.7258 21.2681C15.1383 20.8555 15.1383 20.1868 14.7258 19.7743C14.3133 19.3617 13.6444 19.3617 13.2319 19.7743L11.8662 21.1399L10.5005 19.7743ZM20.3169 23.6902C19.7335 23.6902 19.2606 24.1631 19.2606 24.7465C19.2606 25.3299 19.7335 25.8028 20.3169 25.8028H25.9507C26.5341 25.8028 27.007 25.3299 27.007 24.7465C27.007 24.1631 26.5341 23.6902 25.9507 23.6902H20.3169Z" fill="#1F41BB"/>
</svg>
