<svg width="34" height="34" viewBox="0 0 34 34" fill="none" xmlns="http://www.w3.org/2000/svg">
<path fill-rule="evenodd" clip-rule="evenodd" d="M10.1338 7.38721H15.6268C18.2162 7.38721 19.5108 7.38721 20.3153 8.19164C21.1197 8.99605 21.1197 10.2908 21.1197 12.8802V29.7023H23.1796H29.3592H30.7324C31.3012 29.7023 31.7623 30.1635 31.7623 30.7323C31.7623 31.3011 31.3012 31.7622 30.7324 31.7622H3.26762C2.69881 31.7622 2.23769 31.3011 2.23769 30.7323C2.23769 30.1635 2.69881 29.7023 3.26762 29.7023H4.64086V12.8802C4.64086 10.2908 4.64086 8.99605 5.44528 8.19164C6.2497 7.38721 7.5444 7.38721 10.1338 7.38721ZM7.73064 11.5069C7.73064 10.9381 8.19176 10.477 8.76057 10.477H17C17.5688 10.477 18.0299 10.9381 18.0299 11.5069C18.0299 12.0757 17.5688 12.5369 17 12.5369H8.76057C8.19176 12.5369 7.73064 12.0757 7.73064 11.5069ZM7.73064 15.6266C7.73064 15.0578 8.19176 14.5967 8.76057 14.5967H17C17.5688 14.5967 18.0299 15.0578 18.0299 15.6266C18.0299 16.1954 17.5688 16.6566 17 16.6566H8.76057C8.19176 16.6566 7.73064 16.1954 7.73064 15.6266ZM7.73064 19.7464C7.73064 19.1776 8.19176 18.7164 8.76057 18.7164H17C17.5688 18.7164 18.0299 19.1776 18.0299 19.7464C18.0299 20.3152 17.5688 20.7763 17 20.7763H8.76057C8.19176 20.7763 7.73064 20.3152 7.73064 19.7464ZM12.8803 25.5826C13.4491 25.5826 13.9102 26.0438 13.9102 26.6126V29.7023H11.8504V26.6126C11.8504 26.0438 12.3115 25.5826 12.8803 25.5826Z" fill="#1F41BB"/>
<path opacity="0.5" d="M21.1197 3.26758H23.8662C26.4556 3.26758 27.7503 3.26758 28.5547 4.07201C29.3592 4.87642 29.3592 6.17113 29.3592 8.76054V29.7024H21.1197V12.8803C21.1197 10.2908 21.1197 8.99614 20.3153 8.19173C19.529 7.40541 18.2742 7.38771 15.7998 7.38731V5.32742C15.9156 4.79565 16.1088 4.39444 16.4312 4.07201C17.2355 3.26758 18.5304 3.26758 21.1197 3.26758Z" fill="#1F41BB"/>
</svg>
