<svg width="31" height="31" viewBox="0 0 31 31" fill="none" xmlns="http://www.w3.org/2000/svg">
<g clip-path="url(#clip0_409_7220)">
<path d="M26.025 17.5708C27.9362 17.5708 29.4859 16.0221 29.4859 14.1109C29.4859 12.1996 27.9362 10.6499 26.025 10.6499C24.1142 10.6499 22.5645 12.1996 22.5645 14.1109C22.5646 16.0221 24.1142 17.5708 26.025 17.5708Z" fill="#1F41BB"/>
<path d="M30.4563 20.9057C30.3021 19.979 29.5362 18.6821 28.9564 18.1028C28.88 18.026 28.5387 18.0082 28.4465 18.0654C27.7416 18.4989 26.9137 18.754 26.025 18.754C25.1373 18.754 24.3093 18.4989 23.6044 18.0654C23.5118 18.0082 23.1709 18.026 23.0945 18.1028C22.9325 18.2648 22.7556 18.4806 22.5832 18.7308C23.0497 19.6091 23.4196 20.5421 23.5532 21.3455C23.6866 22.1509 23.6433 22.9134 23.4275 23.6085C24.194 23.8858 25.1131 24.0075 26.0249 24.0075C28.4033 24.0075 30.8371 23.1829 30.4563 20.9057Z" fill="#1F41BB"/>
<path d="M15.357 16.1108C18.4544 16.1108 20.9656 13.5995 20.9656 10.5022C20.9656 7.40577 18.4544 4.89453 15.357 4.89453C12.2601 4.89453 9.74978 7.40577 9.74978 10.5022C9.74978 13.5995 12.26 16.1108 15.357 16.1108Z" fill="#1F41BB"/>
<path d="M20.1061 16.9699C19.9844 16.8487 19.4317 16.8177 19.2814 16.9107C18.1381 17.6142 16.7964 18.026 15.357 18.026C13.9186 18.026 12.5762 17.6142 11.4335 16.9107C11.2833 16.8177 10.7306 16.8487 10.6089 16.9699C9.66707 17.9107 8.42574 20.0141 8.176 21.5136C7.56024 25.207 11.5055 26.5405 15.357 26.5405C19.2095 26.5405 23.1547 25.207 22.5389 21.5136C22.2892 20.0141 21.0479 17.9107 20.1061 16.9699Z" fill="#1F41BB"/>
<path d="M4.86676 17.5708C6.77753 17.5708 8.32721 16.0221 8.32721 14.1109C8.32721 12.1996 6.77753 10.6499 4.86676 10.6499C2.95547 10.6499 1.40579 12.1996 1.40579 14.1109C1.40579 16.0221 2.95547 17.5708 4.86676 17.5708Z" fill="#1F41BB"/>
<path d="M7.16218 21.3455C7.3041 20.5017 7.70451 19.5082 8.20651 18.5895C8.06659 18.3984 7.92673 18.2319 7.79763 18.1028C7.72127 18.026 7.38041 18.0082 7.28781 18.0654C6.58287 18.4989 5.75483 18.754 4.86676 18.754C3.97858 18.754 3.15 18.4989 2.44565 18.0654C2.35347 18.0082 2.01167 18.026 1.93531 18.1028C1.35406 18.6821 0.590094 19.979 0.435361 20.9057C0.0551133 23.1829 2.48851 24.0075 4.86676 24.0075C5.7155 24.0075 6.57259 23.903 7.3041 23.6642C7.07359 22.9549 7.02479 22.1746 7.16218 21.3455Z" fill="#1F41BB"/>
</g>
<defs>
<clipPath id="clip0_409_7220">
<rect width="30.1" height="30.1" fill="white" transform="translate(0.395912 0.66748)"/>
</clipPath>
</defs>
</svg>
